<svg height="22" viewBox="-35 0 512 512.00102" width="22" xmlns="http://www.w3.org/2000/svg"><path d="m443.054688 495.171875-38.914063-370.574219c-.816406-7.757812-7.355469-13.648437-15.15625-13.648437h-42.664063v64.054687c0 25.207032-20.507812 45.714844-45.714843 45.714844s-45.714844-20.507812-45.714844-45.714844v-64.054687h-66.644531v64.054687c0 25.207032-20.507813 45.714844-45.714844 45.714844s-45.714844-20.507812-45.714844-45.714844v-64.054687h-42.664062c-7.800782 0-14.339844 5.890625-15.15625 13.648437l-38.9140628 370.574219c-.4492192 4.292969.9453128 8.578125 3.8320308 11.789063 2.890626 3.207031 7.007813 5.039062 11.324219 5.039062h412.65625c4.320313 0 8.4375-1.832031 11.324219-5.039062 2.894531-3.210938 4.285156-7.496094 3.835938-11.789063zm0 0"/><path d="m127.292969 175.003906c0 8.417969 6.824219 15.238282 15.238281 15.238282s15.238281-6.820313 15.238281-15.238282v-80.730468c0-35.175782 28.621094-63.796876 63.800781-63.796876 35.175782 0 63.796876 28.621094 63.796876 63.796876v80.734374c0 8.414063 6.824218 15.238282 15.238281 15.238282 8.414062 0 15.238281-6.824219 15.238281-15.238282v-80.734374c0-51.980469-42.292969-94.273438-94.273438-94.273438-51.984374 0-94.277343 42.292969-94.277343 94.273438zm0 0"/></svg>